<svg xmlns="http://www.w3.org/2000/svg" xmlns:xlink="http://www.w3.org/1999/xlink" version="1.1" x="0px" y="0px" viewBox="0 0 100 125" style="enable-background:new 0 0 100 100;" xml:space="preserve"><style type="text/css">
	.st0{fill:none;stroke:#000000;stroke-width:2;stroke-linecap:round;stroke-miterlimit:10;}
</style><path d="M93.1481552,47.9500923c-5.5195923-5.835022-22.7487183-22.1167622-43.1481361-22.1167622  c-5.548584,0-10.8592529,1.210083-15.7669067,3.0813599L19.7243252,14.4059019  c-1.4686279-1.4686279-3.8497934-1.4686279-5.3184214,0s-1.4686279,3.8497305,0,5.3184195l12.5552378,12.5552387  c-9.5817871,5.2160645-16.8607788,12.2371216-20.104248,15.6652832c-1.0930176,1.1552124-1.0930176,2.9549561,0,4.1102295  c5.5249629,5.8395996,22.7498169,22.1115685,43.1431274,22.1115685c5.548584,0,10.8591919-1.210083,15.7668495-3.0813599  l14.5088501,14.5087891c1.4686279,1.4686279,3.8497314,1.4686279,5.3184204,0c1.4686279-1.4686279,1.4686279-3.8497925,0-5.3184204  L73.0389023,67.7204132c9.586731-5.2187462,16.8682251-12.244381,20.1092529-15.6706505  C94.2382431,50.8973579,94.2382431,49.1025581,93.1481552,47.9500923z M50.0000191,71.391983  c-18.623167,0-34.2613525-15.3299522-38.6226196-20.0352135c-0.7121582-0.7683105-0.7121582-1.9453735,0-2.7136841  c2.5769653-2.7802124,9.0927744-9.2688599,17.8336182-14.1136475l7.9116802,7.9116211  c-1.3059082,2.2196045-2.0681152,4.7973633-2.0681152,7.5588989c0,8.2540894,6.6912842,14.9453697,14.9454346,14.9453697  c2.7615356,0,5.3392334-0.762146,7.5588379-2.0680504l5.9553833,5.9553185  C59.2940254,70.393631,54.7448921,71.391983,50.0000191,71.391983z M88.6226425,51.3567696  c-2.5769653,2.7802734-9.0927734,9.2689819-17.8336182,14.1137657l-7.911747-7.9117393  c1.305912-2.2196045,2.068119-4.7973022,2.068119-7.5588379c0-2.9650879-0.8743286-5.7210083-2.3634071-8.0449829  c-0.7211304,1.9624023-2.6010742,3.3649292-4.8135986,3.3649292c-2.8346558,0-5.1326904-2.2979736-5.1326904-5.1326904  c0-1.788147,0.9155884-3.361145,2.3023682-4.2800903c-1.5478516-0.5424805-3.204895-0.8526001-4.9380493-0.8526001  c-2.7615356,0-5.3393555,0.762207-7.55896,2.0681152l-5.9552612-5.9552631  c4.2202148-1.5610352,8.7693481-2.5593872,13.5142212-2.5593872c18.6231728,0,34.2613564,15.3298969,38.6226234,20.0350971  C89.3348007,49.411396,89.3348007,50.588459,88.6226425,51.3567696z"/></svg>